<?xml version="1.0" standalone="no"?><!DOCTYPE svg PUBLIC "-//W3C//DTD SVG 1.1//EN" "http://www.w3.org/Graphics/SVG/1.1/DTD/svg11.dtd"><svg t="1555653793892" class="icon" style="" viewBox="0 0 1050 1024" version="1.1" xmlns="http://www.w3.org/2000/svg" p-id="954" data-spm-anchor-id="a313x.7781069.0.i0" xmlns:xlink="http://www.w3.org/1999/xlink" width="16.40625" height="16"><defs><style type="text/css"></style></defs><path d="M536.980211 132.877474a160.148211 160.148211 0 0 0-159.986527 159.986526 160.148211 160.148211 0 0 0 159.986527 159.959579 160.148211 160.148211 0 0 0 159.959578-159.959579 160.148211 160.148211 0 0 0-159.959578-159.986526m0 426.603789c-147.024842 0-266.644211-119.619368-266.644211-266.617263 0-147.024842 119.619368-266.644211 266.644211-266.644211 146.997895 0 266.617263 119.619368 266.617263 266.644211 0 146.997895-119.619368 266.617263-266.617263 266.617263" fill="#D26C9E" p-id="955"></path><path d="M980.803368 963.368421c-25.195789 0-47.535158-17.327158-52.493473-41.984-19.536842-97.145263-105.552842-170.549895-208.384-170.549895H366.996211c-102.858105 0-188.847158 73.404632-208.410948 170.549895-4.958316 24.656842-27.297684 41.984-52.493474 41.984-33.414737 0-59.796211-30.261895-53.221052-63.029895 29.372632-146.566737 159.043368-257.320421 314.125474-257.320421h352.929684c155.055158 0 284.752842 110.753684 314.098526 257.320421 6.575158 32.768-19.806316 63.029895-53.221053 63.029895" fill="#7B659D" p-id="956"></path><path d="M494.295579 597.665684c-146.997895 0-266.617263-119.646316-266.617263-266.617263a266.563368 266.563368 0 0 1 111.346526-216.656842 265.701053 265.701053 0 0 0-68.688842 178.472421c0 146.997895 119.619368 266.617263 266.644211 266.617263a265.027368 265.027368 0 0 0 155.216842-49.960421 266.024421 266.024421 0 0 1-197.901474 88.144842m126.221474-168.421052a159.151158 159.151158 0 0 0 33.765052-98.196211 160.175158 160.175158 0 0 0-159.986526-160.013474 158.908632 158.908632 0 0 0-83.509895 23.605895 159.770947 159.770947 0 0 1 126.194527-61.763368 160.148211 160.148211 0 0 1 159.959578 159.986526 160.013474 160.013474 0 0 1-76.422736 136.380632" fill="#F9DEE5" p-id="957"></path><path d="M536.980211 559.481263c-147.024842 0-266.644211-119.619368-266.644211-266.617263a265.701053 265.701053 0 0 1 68.688842-178.472421 265.216 265.216 0 0 1 155.270737-49.987368c147.024842 0 266.617263 119.619368 266.617263 266.64421a265.512421 265.512421 0 0 1-68.715789 178.472421 265.027368 265.027368 0 0 1-155.216842 49.960421M410.785684 194.640842a159.986526 159.986526 0 0 0-76.449684 136.407579 160.148211 160.148211 0 0 0 159.959579 159.959579 159.851789 159.851789 0 0 0 126.221474-61.763368 160.013474 160.013474 0 0 0 76.422736-136.380632 160.148211 160.148211 0 0 0-159.959578-159.986526 159.770947 159.770947 0 0 0-126.194527 61.763368" fill="#D26C9E" p-id="958" data-spm-anchor-id="a313x.7781069.0.i1" class="selected"></path><path d="M938.118737 1001.552842c-25.141895 0-47.508211-17.327158-52.466526-41.984-19.563789-97.172211-105.579789-170.549895-208.410948-170.549895H324.311579a211.536842 211.536842 0 0 0-118.999579 36.486737 212.237474 212.237474 0 0 1 161.684211-74.671158h352.929684c102.831158 0 188.847158 73.404632 208.384 170.549895 4.958316 24.656842 27.297684 41.984 52.493473 41.984 3.287579 0 6.494316-0.296421 9.620211-0.835368a54.514526 54.514526 0 0 1-52.304842 39.019789m-874.684632 0c-33.414737 0-59.796211-30.261895-53.221052-63.056842a320.862316 320.862316 0 0 1 122.906947-193.805474 319.622737 319.622737 0 0 0-80.249263 155.648c-6.575158 32.768 19.806316 63.029895 53.221052 63.029895 3.098947 0 6.144-0.242526 9.135158-0.754526-6.144 23.04-27.648 38.938947-51.792842 38.938947" fill="#F9DEE5" p-id="959"></path><path d="M980.803368 963.368421c-25.195789 0-47.535158-17.327158-52.493473-41.984-19.536842-97.145263-105.552842-170.549895-208.384-170.549895H366.996211a212.237474 212.237474 0 0 0-161.684211 74.671158 213.153684 213.153684 0 0 0-89.384421 134.063158 100.756211 100.756211 0 0 1-0.700632 3.045053 54.056421 54.056421 0 0 1-9.135158 0.754526c-33.414737 0-59.796211-30.261895-53.221052-63.029895a319.622737 319.622737 0 0 1 80.249263-155.648 318.598737 318.598737 0 0 1 191.191579-63.488h352.929684c155.082105 0 284.779789 110.753684 314.125474 257.293474 1.670737 8.326737 1.212632 16.491789-0.943158 24.037053-3.125895 0.538947-6.332632 0.835368-9.620211 0.835368" fill="#8A679E" p-id="960" data-spm-anchor-id="a313x.7781069.0.i3" class="selected"></path></svg>